<?xml version="1.0" standalone="no"?>
<!DOCTYPE svg PUBLIC "-//W3C//DTD SVG 20010904//EN"
 "http://www.w3.org/TR/2001/REC-SVG-20010904/DTD/svg10.dtd">
<svg version="1.0" xmlns="http://www.w3.org/2000/svg"
 width="700.000000pt" height="700.000000pt" viewBox="0 0 700.000000 700.000000"
 preserveAspectRatio="xMidYMid meet">
<metadata>
Created by potrace 1.14, written by Peter Selinger 2001-2017
</metadata>
<g transform="translate(0.000000,700.000000) scale(0.100000,-0.100000)"
fill="#000000" stroke="none">
<path d="M3318 6605 c-2 -2 -31 -7 -65 -10 -68 -6 -220 -36 -303 -58 -408
-113 -796 -368 -1041 -687 -67 -88 -149 -211 -149 -224 0 -4 -8 -20 -18 -34
-23 -33 -83 -174 -112 -262 -58 -178 -87 -422 -67 -562 36 -238 241 -443 482
-483 344 -56 663 208 676 560 9 227 273 496 559 570 169 44 397 34 581 -26 64
-21 230 -96 239 -109 3 -3 26 -21 52 -38 106 -72 222 -216 269 -333 35 -89 46
-141 48 -235 6 -297 -155 -557 -459 -740 -204 -123 -502 -224 -708 -239 -244
-19 -418 -127 -513 -320 -66 -134 -66 -144 -64 -675 2 -424 4 -481 20 -530 51
-160 156 -283 300 -356 97 -48 171 -64 285 -60 211 7 402 130 494 318 49 99
63 176 65 358 1 85 4 156 6 159 3 2 63 19 134 37 551 138 956 377 1241 733
159 199 290 487 335 741 36 198 40 509 10 705 -9 61 -19 126 -22 145 -10 63
-71 276 -109 376 -152 406 -409 732 -758 959 -193 126 -500 246 -720 281 -21
3 -48 8 -60 10 -11 2 -43 7 -71 10 -27 3 -61 8 -75 11 -30 6 -476 14 -482 8z"/>
<path d="M3174 1345 c-200 -46 -370 -208 -430 -410 -23 -77 -24 -239 -1 -310
33 -108 91 -206 156 -263 14 -13 37 -33 51 -45 76 -66 227 -119 345 -120 124
-1 223 26 320 88 384 245 355 807 -51 1014 -110 56 -269 75 -390 46z"/>
</g>
</svg>
