<?xml version="1.0" standalone="no"?>
<!DOCTYPE svg PUBLIC "-//W3C//DTD SVG 20010904//EN"
 "http://www.w3.org/TR/2001/REC-SVG-20010904/DTD/svg10.dtd">
<svg version="1.0" xmlns="http://www.w3.org/2000/svg"
 width="192.000000pt" height="192.000000pt" viewBox="0 0 192.000000 192.000000"
 preserveAspectRatio="xMidYMid meet">
<metadata>
Created by potrace 1.14, written by Peter Selinger 2001-2017
</metadata>
<g transform="translate(0.000000,192.000000) scale(0.100000,-0.100000)"
fill="#000000" stroke="none">
<path d="M947 1814 c-1 -2 -23 -4 -47 -5 -166 -9 -356 -139 -431 -295 -39 -84
-51 -201 -25 -252 18 -36 65 -74 99 -80 105 -21 185 32 202 135 18 112 102
174 234 172 39 -1 74 -5 77 -10 3 -5 14 -9 25 -9 10 0 19 -4 19 -10 0 -5 6
-10 13 -10 15 0 77 -52 77 -66 0 -5 5 -15 12 -22 26 -26 30 -111 7 -161 -18
-42 -68 -97 -109 -123 -40 -24 -135 -57 -187 -64 -140 -18 -171 -73 -167 -300
2 -121 15 -161 62 -198 30 -24 42 -27 98 -31 91 -6 160 66 159 169 0 59 1 60
55 70 92 17 226 91 293 162 50 54 54 59 80 110 38 77 52 142 51 239 -1 138
-51 290 -121 371 -14 16 -30 36 -37 44 -42 57 -178 129 -281 149 -58 11 -153
20 -158 15z"/>
<path d="M870 367 c-49 -13 -85 -41 -105 -83 -54 -115 32 -240 158 -228 75 6
133 67 141 147 11 102 -94 191 -194 164z"/>
</g>
</svg>
